
<global>
amp_veltrack=0
ampeg_release=0.35
</global>

<group>
group_label=Group_0-64
lpc_hicc1=64
lpc_locc1=0

<region>
hikey=A#5
hivel=127
lokey=A5
lovel=1
lpc=e6yRQfkv5sG8jLdBddZBwTVcUUHkryLBhpjrQAyJ5L8lgpQ/yGwTQCPj479PkBpAHhnqPl6mgT4xuvw/cXp0vzfdkUAT423ArqCWQDh4d8DxcrZAlZECwNYvDUDYa8O/
lpc_rms=-29.82
pitch_keycenter=A#5
sample=Piccolo_invertedturn_major_PP_A#4.opus
</region>

<region>
hikey=A#6
hivel=127
lokey=A6
lovel=1
lpc=+YiLQVwSYcFrZ2RBOqzJwKoRB0EjZHdArOUPQXLBxz71zPlAVFU5QOno5kCnDyNA4Hl3vzaoVz+yB9tAT508P6IMRkB41Mo/E7A7wJxkmz/9xqE/DjN0P8ZMXsB0ZW5A
lpc_rms=-29.42
pitch_keycenter=A#6
sample=Piccolo_invertedturn_major_PP_A#5.opus
</region>

<region>
hikey=C6
hivel=127
lokey=B5
lovel=1
lpc=WgpBQVs6kMFFjn9B+L49wQKZMUEBHd/A/Z7qQIqNoMCheIBAB4OAvxzrFEBXp+++W4nJP1EIkz5pePo9YQ3mPyC5JD4KJDE/7oZsPxImhz9kIw+/amcBQG+RtsB1go9A
lpc_rms=-36.47
pitch_keycenter=C6
sample=Piccolo_invertedturn_major_PP_C5.opus
</region>

<region>
hikey=C7
hivel=127
lokey=B6
lovel=1
lpc=kVbKQZ9kj8HdBpxB1rSVwDcgaUEAH+tA9VVgQRRB2D+u0IZBArtdQLipQ0F6BPfANvc/QbQLvkAKf1lAcRnMQCorFsALTdA/ZLZcP2ofOED3QnLAXi0aQcWhrMCzJDVA
lpc_rms=-25.68
pitch_keycenter=C7
sample=Piccolo_invertedturn_major_PP_C6.opus
</region>

<region>
hikey=D6
hivel=127
lokey=C#6
lovel=1
lpc=uXXFQUGpCsJI4OFBeX55wW/iUEHawGLA2grCQDADzcArYTFB4sZEP/clsUByaxrALrEwQGe4UkAK19VAQZ0kv0usCEDtxiC/grerQCdn1D8zX8XAN6fpQA2FDMD/XZxA
lpc_rms=-30.18
pitch_keycenter=D6
sample=Piccolo_invertedturn_major_PP_D5.opus
</region>

<region>
hikey=D7
hivel=127
lokey=C#7
lovel=1
lpc=iW3gQQUvpcGD6ttBUF72vyRNg0Ea2Y9Bf/s8QT3vo0H2hTFBaqExQQn5nr+JNXZBw9+3QBFTlD/RRV0+TP3ewES8YMCmzyjB08UGwKhSDL5T0wXBsEOfPtdK/cB/+Im/
lpc_rms=-23.83
pitch_keycenter=D7
sample=Piccolo_invertedturn_major_PP_D6.opus
</region>

<region>
hivel=127
key=E5
lovel=1
lpc=T0tHQW94xMEP99FBlOLGweCXtEF/uoXBi3NMQdpNQsHK+DlB0JALwbpq40Admq/ALkeZQLEED8D8iRM/z37cvjs8Fj9iw7K+lu+APzj7lL69xya/hZdSP87zpT6wYUs/
lpc_rms=-38.42
sample=Piccolo_invertedturn_major_PP_E4.opus
</region>

<region>
hikey=E6
hivel=127
lokey=D#6
lovel=1
lpc=g9+CQQ01gcE4OUlBTaXFwE3w0kDQzMK+rEyiQNTN2j7mF9hAiNhZPyQshUDy9i1AG0xLQJLwTEA/nGZASBMpQN7qi0C6LqK/eZcEwPpinUDKowtATVUYQG+BGT+j4Ks/
lpc_rms=-33.78
pitch_keycenter=E6
sample=Piccolo_invertedturn_major_PP_E5.opus
</region>

<region>
hikey=E7
hivel=127
lokey=D#7
lovel=1
lpc=08fXQT0nscEOmcVBF4YcwH+7h0FHmA5Bey83QeIeJ0F4/Ig/KFcUwHrmkEGK+fu/k1u1QDgVP78Dx5C/x5+XvkhP+D/YnjdBWloDwc6lHEGCu8DAewK3QMWiKD5R1TRA
lpc_rms=-24.53
pitch_keycenter=E7
sample=Piccolo_invertedturn_major_PP_E6.opus
</region>

<region>
hikey=F#5
hivel=127
lokey=F5
lovel=1
lpc=u2r8QCClc8F0w2BBUu0fwae/JEHSIhXBWtj6QKc/1MCo9KtAB0xMwPX8HkAprpy/KHDBP9l1Jr+Uwk6+U4TQPo6I0j6DQmK+wo5gP1mti7x/QgC8LI8TvmYU+7zSx38/
lpc_rms=-39.56
pitch_keycenter=F#5
sample=Piccolo_invertedturn_major_PP_F#4.opus
</region>

<region>
hikey=F#6
hivel=127
lokey=F6
lovel=1
lpc=jEAuQfoEasEtwlhBPMbxwJa8/kC8tEPA3UauQB21nr+0VYNAa4Qlv8BjikBRvW+9dbo2QOc2REC1YzC/D+jbPw1UU78mbA5A5D32P6TUZD+ojfy/GPJFQFEH77/Jg58/
lpc_rms=-35.12
pitch_keycenter=F#6
sample=Piccolo_invertedturn_major_PP_F#5.opus
</region>

<region>
hikey=F#7
hivel=127
lokey=F7
lovel=1
lpc=9YScQSymfsGzyZpB09EBwX9rhkFb/5/Aea53QUNUBsH9FEBAsz3MQH1tw79nQrFAPjyjwCfcskCz27rAwqbwQPbb/cBXuh1BB2XLwHb2wED/W6W/xPUCQESKF0Cigwg/
lpc_rms=-11.53
pitch_keycenter=F#7
sample=Piccolo_invertedturn_major_PP_F#6.opus
</region>

<region>
hikey=G#5
hivel=127
lokey=G5
lovel=1
lpc=CLWFQfAJAsJWAf5BshO1wVgAo0EpLIXBd85zQV4BUcFQ/SRBEwrBwI8JqkDKcua/CYgpQJV4WMAtLM8/5uKyP9oF0z9ggni/ozTSPziIPMDhR2hA/R10v4WsDkDmM+2+
lpc_rms=-31.15
pitch_keycenter=G#5
sample=Piccolo_invertedturn_major_PP_G#4.opus
</region>

<region>
hikey=G#6
hivel=127
lokey=G6
lovel=1
lpc=GT9wQXPDQ8H15WZB6yMBwfy6FEFfwOG/poUeQVbwPkBEMnVA7upvQC6ZeEAo6mdA5epcQGHCTEDPTJ/A5WmPQOOrTz//X4A/G6ZnQBv/6r4b8xLAJOSXv40gZL6idZa+
lpc_rms=-32.30
pitch_keycenter=G#6
sample=Piccolo_invertedturn_major_PP_G#5.opus
</region>

<region>
hikey=G#7
hivel=127
lokey=G7
lovel=1
lpc=85E/QdP75MDzBUdBZNCJvw2YLkHt+XBAdrjtQBYiHMDKm0pBOrxHv8ijBUEwQIc/sqGNQC01K0BxmD1AVxCJQNLW5j/lYZhAlomAPzinj0B/Vvs/QqfbP/N/lT8/YgE/
lpc_rms=-13.78
pitch_keycenter=G#7
sample=Piccolo_invertedturn_major_PP_G#6.opus
</region>
</group>

<group>
group_label=Group_65-127
lpc_hicc1=127
lpc_locc1=65

<region>
hikey=A#5
hivel=127
lokey=A5
lovel=1
lpc=qxR1QaWO6cFg4ABCFXzBwZLApkGGZIjBoSFyQfP9JcE2XQJBadhdwCBJUEDDCea/v54IQDBAs77d7yJA3EC3vwgrMECARFXAPnzEQDKjb8B521pAuVHev68MREDxB/2/
lpc_rms=-24.68
pitch_keycenter=A#5
sample=Piccolo_invertedturn_major_FF_A#4.opus
</region>

<region>
hikey=A#6
hivel=127
lokey=A6
lovel=1
lpc=ftO6QSffl8EgOqpBX+EBwfPDZUGoB9dA321FQQmIEUGUvgJBASODQYNwl0A0XHZBCQ+OP6AVpECbfZ1BOQn7v2pmh0GLjVzA5Db4QHH7gL5bKodAzTXoP6DNSb/N/qpA
lpc_rms=-19.64
pitch_keycenter=A#6
sample=Piccolo_invertedturn_major_FF_A#5.opus
</region>

<region>
hikey=C6
hivel=127
lokey=B5
lovel=1
lpc=J56KQRvH28GpKL1B91FQwceWLEHXaPLA4VANQVU/p8DPxaZAdT8gv3dMD0DGtT6/PoExQPGK/DyHXP4/CxdwPUd5GUDPECk9MLVnP80a3D+k5pY/ZnhoPxyt68DpZ9BA
lpc_rms=-25.43
pitch_keycenter=C6
sample=Piccolo_invertedturn_major_FF_C5.opus
</region>

<region>
hikey=C7
hivel=127
lokey=B6
lovel=1
lpc=J700QnhxBMLy8w1CYZ2ZwOWq10FiDmFBS++AQa1Jh0Gmx8lBmvc4QeQw20GfMMHBc6/5QXNvGEEKWk0/y5RUQWAEQsEwJU9Bs9aqwNSqdD+n/G/AzfCJQK3HO7/DWcS+
lpc_rms=-14.90
pitch_keycenter=C7
sample=Piccolo_invertedturn_major_FF_C6.opus
</region>

<region>
hikey=D6
hivel=127
lokey=C#6
lovel=1
lpc=LDyOQeIQvsFxwZxBqYYbwdf+AUHutsu/KJweQEJyFUBf5mA/mAsDQL53DECcsrY/vtUlQMLi6764j3ZA+G6hP7+ekT8m0RpAb7PNPzkb67/x0izADG2kQIRGrz1Vn7Q+
lpc_rms=-27.05
pitch_keycenter=D6
sample=Piccolo_invertedturn_major_FF_D5.opus
</region>

<region>
hikey=D7
hivel=127
lokey=C#7
lovel=1
lpc=/KJEQQq7GMG78jRBQxs+wFpXAUFDaHtAE323QDibrUAOo4hA5WdMQDf8rr6YlAZB/b4+QAZYM0D71f4/w7nhP+VhEEDwmCQ/HOJnQJw9SkCEL8+/k1RQQDHjEsDj11tA
lpc_rms=-26.67
pitch_keycenter=D7
sample=Piccolo_invertedturn_major_FF_D6.opus
</region>

<region>
hivel=127
key=E5
lovel=1
lpc=8RdWQeiF6cH6HvhBYazMwbWlsEFYpIrBwAFJQUThI8FAGjJBmu8NwZSqt0BCpKrAwQO+QDOJiMAj57o/qkVGP85eETx5gQM+IlQfP6KB8r59kza/whoBQOL+PcD9mjFA
lpc_rms=-31.81
sample=Piccolo_invertedturn_major_FF_E4.opus
</region>

<region>
hikey=E6
hivel=127
lokey=D#6
lovel=1
lpc=649LQQfli8EpnJBB76EbwejsDUEyTLvAAwYBQSipw7/k7rJAO23ZPtI/QUD4kfQ/LdEfQH2DWUDUwvI+AoFeQAUgOUAxAQXApo8NP2EVmECLWXK/btpwv2WDnUB8jja/
lpc_rms=-28.68
pitch_keycenter=E6
sample=Piccolo_invertedturn_major_FF_E5.opus
</region>

<region>
hikey=E7
hivel=127
lokey=D#7
lovel=1
lpc=kkvDQah7lcF9FLBBb8+WwFMWmUGyonlAFTZUQeplIUEQ1YXATrefQDMvfEFRLZW++vUZQUzDqcCv5QpBu2x0wJxHp0CGsTNB+P1MwaoVM0EqP/bA8mW0QAisBMAsJgU/
lpc_rms=-21.52
pitch_keycenter=E7
sample=Piccolo_invertedturn_major_FF_E6.opus
</region>

<region>
hikey=F#5
hivel=127
lokey=F5
lovel=1
lpc=UrAJQdb1lsGaxqRBlg18wWL4UkHiACzBBeMLQXiRx8A55X1A9ufPv1+Dgj8e6Ko93CUfPjU1KDzSMwY/3rKzvitJID7TngA/SpPgPtYkkz3o/hC/Oq/ePwscFsB2xAJA
lpc_rms=-32.79
pitch_keycenter=F#5
sample=Piccolo_invertedturn_major_FF_F#4.opus
</region>

<region>
hikey=F#6
hivel=127
lokey=F6
lovel=1
lpc=9aatQWnX3sGo9vVBGURbwcqThUHKIMPAcTVxQZrhRT+sKjZB4bY9QGVtJ0HcpedApvvxQEWrB0HiI41A4iXYQK7AgL9iwUlB0cJIvxnXokCfLDdAHPqFQCg51r+GaGlA
lpc_rms=-24.09
pitch_keycenter=F#6
sample=Piccolo_invertedturn_major_FF_F#5.opus
</region>

<region>
hikey=F#7
hivel=127
lokey=F7
lovel=1
lpc=zXycQfCufsFqv5pBtt0Bwe1bhkHQJaDA8oR3QadpBsGYlz9AfArMQO1cxL/bB7FA8WmjwLKmskAO+brAT3TwQHvp/cCSnx1BJW7LwIPPwECObKW/0LwCQPCLF0AzqQc/
lpc_rms=-11.91
pitch_keycenter=F#7
sample=Piccolo_invertedturn_major_FF_F#6.opus
</region>

<region>
hikey=G#5
hivel=127
lokey=G5
lovel=1
lpc=C8JeQZgH8sH5VxZCLMvzwTPOt0FNrYDBNmlKQRW41MDWK3hAM6exv8nrVkBgckbAg9F3QG0JFMAT0VNAZmYgwEVOekAjTC/AdqyHQHdUb8B8KpJAUZDHv9aggL43wR9A
lpc_rms=-24.75
pitch_keycenter=G#5
sample=Piccolo_invertedturn_major_FF_G#4.opus
</region>

<region>
hikey=G#6
hivel=127
lokey=G6
lovel=1
lpc=5EGzQfBWwMFdf7lBselPwXkSZ0GtsynApjHaQMGGt0AvTNw/vrisQN1Oej8IkLVAt7JpPdlDekD+6E7BSq84QUiqL8CMzce+5R9AQBeg0MDqfIFAfMnNwOmz2j/74R/A
lpc_rms=-21.66
pitch_keycenter=G#6
sample=Piccolo_invertedturn_major_FF_G#5.opus
</region>

<region>
hikey=G#7
hivel=127
lokey=G7
lovel=1
lpc=85E/QdP75MDzBUdBZNCJvw2YLkHt+XBAdrjtQBYiHMDKm0pBOrxHv8ijBUEwQIc/sqGNQC01K0BxmD1AVxCJQNLW5j/lYZhAlomAPzinj0B/Vvs/QqfbP/N/lT8/YgE/
lpc_rms=-13.78
pitch_keycenter=G#7
sample=Piccolo_invertedturn_major_FF_G#6.opus
</region>
</group>